<svg xmlns="http://www.w3.org/2000/svg" width="900" height="463" viewBox="0 0 900 463" role="img" aria-labelledby="title desc">
<title id="title">Variação em 7 dias: Investimentos EA FC: Ligue 1 em 22/07 — Console (PS)</title>
<desc id="desc">Gráfico gerado a partir da tabela publicada neste artigo.</desc>
<rect width="100%" height="100%" rx="20" fill="#0f172a"/>
<text x="28" y="42" fill="#f8fafc" font-family="system-ui,sans-serif" font-size="23" font-weight="700">Variação em 7 dias</text>
<text x="28" y="70" fill="#94a3b8" font-family="system-ui,sans-serif" font-size="15">Dados do recorte publicado no artigo</text>
<text x="28" y="117" fill="#e2e8f0" font-family="system-ui,sans-serif" font-size="16">Ousmane Dembélé</text>
<rect x="285" y="95" width="480" height="28" rx="7" fill="#22c55e"/>
<text x="775" y="116" fill="#f8fafc" font-family="system-ui,sans-serif" font-size="15" font-weight="700">+40.0%</text>
<text x="28" y="175" fill="#e2e8f0" font-family="system-ui,sans-serif" font-size="16">Pierre-Emerick Aubameyang</text>
<rect x="285" y="153" width="263" height="28" rx="7" fill="#22c55e"/>
<text x="558" y="174" fill="#f8fafc" font-family="system-ui,sans-serif" font-size="15" font-weight="700">+21.9%</text>
<text x="28" y="233" fill="#e2e8f0" font-family="system-ui,sans-serif" font-size="16">Amine Gouiri</text>
<rect x="285" y="211" width="240" height="28" rx="7" fill="#22c55e"/>
<text x="535" y="232" fill="#f8fafc" font-family="system-ui,sans-serif" font-size="15" font-weight="700">+20.0%</text>
<text x="28" y="291" fill="#e2e8f0" font-family="system-ui,sans-serif" font-size="16">Alexsandro</text>
<rect x="285" y="269" width="137" height="28" rx="7" fill="#22c55e"/>
<text x="432" y="290" fill="#f8fafc" font-family="system-ui,sans-serif" font-size="15" font-weight="700">+11.4%</text>
<text x="28" y="349" fill="#e2e8f0" font-family="system-ui,sans-serif" font-size="16">Benjamin Pavard</text>
<rect x="285" y="327" width="136" height="28" rx="7" fill="#22c55e"/>
<text x="431" y="348" fill="#f8fafc" font-family="system-ui,sans-serif" font-size="15" font-weight="700">+11.3%</text>
<text x="28" y="407" fill="#e2e8f0" font-family="system-ui,sans-serif" font-size="16">Olivier Giroud</text>
<rect x="285" y="385" width="134" height="28" rx="7" fill="#22c55e"/>
<text x="429" y="406" fill="#f8fafc" font-family="system-ui,sans-serif" font-size="15" font-weight="700">+11.2%</text>
</svg>
