<svg xmlns="http://www.w3.org/2000/svg" width="900" height="463" viewBox="0 0 900 463" role="img" aria-labelledby="title desc">
<title id="title">Variação em 7 dias: Investimentos EA FC: Ligue 1 em 31/07 — Console (PS)</title>
<desc id="desc">Gráfico gerado a partir da tabela publicada neste artigo.</desc>
<rect width="100%" height="100%" rx="20" fill="#0f172a"/>
<text x="28" y="42" fill="#f8fafc" font-family="system-ui,sans-serif" font-size="23" font-weight="700">Variação em 7 dias</text>
<text x="28" y="70" fill="#94a3b8" font-family="system-ui,sans-serif" font-size="15">Dados do recorte publicado no artigo</text>
<text x="28" y="117" fill="#e2e8f0" font-family="system-ui,sans-serif" font-size="16">Pierre-Emerick Aubameyang</text>
<rect x="285" y="95" width="480" height="28" rx="7" fill="#22c55e"/>
<text x="775" y="116" fill="#f8fafc" font-family="system-ui,sans-serif" font-size="15" font-weight="700">+39.0%</text>
<text x="28" y="175" fill="#e2e8f0" font-family="system-ui,sans-serif" font-size="16">Arsène Kouassi</text>
<rect x="285" y="153" width="400" height="28" rx="7" fill="#22c55e"/>
<text x="695" y="174" fill="#f8fafc" font-family="system-ui,sans-serif" font-size="15" font-weight="700">+32.5%</text>
<text x="28" y="233" fill="#e2e8f0" font-family="system-ui,sans-serif" font-size="16">Sidney Govou</text>
<rect x="285" y="211" width="395" height="28" rx="7" fill="#22c55e"/>
<text x="690" y="232" fill="#f8fafc" font-family="system-ui,sans-serif" font-size="15" font-weight="700">+32.1%</text>
<text x="28" y="291" fill="#e2e8f0" font-family="system-ui,sans-serif" font-size="16">Diego Moreira</text>
<rect x="285" y="269" width="389" height="28" rx="7" fill="#22c55e"/>
<text x="684" y="290" fill="#f8fafc" font-family="system-ui,sans-serif" font-size="15" font-weight="700">+31.6%</text>
<text x="28" y="349" fill="#e2e8f0" font-family="system-ui,sans-serif" font-size="16">Nathan Ngoy</text>
<rect x="285" y="327" width="380" height="28" rx="7" fill="#22c55e"/>
<text x="675" y="348" fill="#f8fafc" font-family="system-ui,sans-serif" font-size="15" font-weight="700">+30.9%</text>
<text x="28" y="407" fill="#e2e8f0" font-family="system-ui,sans-serif" font-size="16">Abdelhamid Ait Boudlal</text>
<rect x="285" y="385" width="363" height="28" rx="7" fill="#22c55e"/>
<text x="658" y="406" fill="#f8fafc" font-family="system-ui,sans-serif" font-size="15" font-weight="700">+29.5%</text>
</svg>
