<svg xmlns="http://www.w3.org/2000/svg" width="900" height="463" viewBox="0 0 900 463" role="img" aria-labelledby="title desc">
<title id="title">Variação em 7 dias: Momentum de Ligue 1 no EA FC em 19/06 — PS</title>
<desc id="desc">Gráfico gerado a partir da tabela publicada neste artigo.</desc>
<rect width="100%" height="100%" rx="20" fill="#0f172a"/>
<text x="28" y="42" fill="#f8fafc" font-family="system-ui,sans-serif" font-size="23" font-weight="700">Variação em 7 dias</text>
<text x="28" y="70" fill="#94a3b8" font-family="system-ui,sans-serif" font-size="15">Dados do recorte publicado no artigo</text>
<text x="28" y="117" fill="#e2e8f0" font-family="system-ui,sans-serif" font-size="16">Sidney Govou</text>
<rect x="285" y="95" width="480" height="28" rx="7" fill="#22c55e"/>
<text x="775" y="116" fill="#f8fafc" font-family="system-ui,sans-serif" font-size="15" font-weight="700">+57.3%</text>
<text x="28" y="175" fill="#e2e8f0" font-family="system-ui,sans-serif" font-size="16">Blaise Matuidi</text>
<rect x="285" y="153" width="350" height="28" rx="7" fill="#22c55e"/>
<text x="645" y="174" fill="#f8fafc" font-family="system-ui,sans-serif" font-size="15" font-weight="700">+41.8%</text>
<text x="28" y="233" fill="#e2e8f0" font-family="system-ui,sans-serif" font-size="16">Alidu Seidu</text>
<rect x="285" y="211" width="225" height="28" rx="7" fill="#22c55e"/>
<text x="520" y="232" fill="#f8fafc" font-family="system-ui,sans-serif" font-size="15" font-weight="700">+26.8%</text>
<text x="28" y="291" fill="#e2e8f0" font-family="system-ui,sans-serif" font-size="16">Charlie Cresswell</text>
<rect x="285" y="269" width="218" height="28" rx="7" fill="#22c55e"/>
<text x="513" y="290" fill="#f8fafc" font-family="system-ui,sans-serif" font-size="15" font-weight="700">+26.0%</text>
<text x="28" y="349" fill="#e2e8f0" font-family="system-ui,sans-serif" font-size="16">Ismaëlo Ganiou</text>
<rect x="285" y="327" width="155" height="28" rx="7" fill="#22c55e"/>
<text x="450" y="348" fill="#f8fafc" font-family="system-ui,sans-serif" font-size="15" font-weight="700">+18.5%</text>
<text x="28" y="407" fill="#e2e8f0" font-family="system-ui,sans-serif" font-size="16">Lukáš Hrádecký</text>
<rect x="285" y="385" width="108" height="28" rx="7" fill="#22c55e"/>
<text x="403" y="406" fill="#f8fafc" font-family="system-ui,sans-serif" font-size="15" font-weight="700">+12.9%</text>
</svg>
