<svg xmlns="http://www.w3.org/2000/svg" width="900" height="463" viewBox="0 0 900 463" role="img" aria-labelledby="title desc">
<title id="title">Variação em 24h: Ligue 1 no EA FC em 02/06: altas e baixas — PC</title>
<desc id="desc">Gráfico gerado a partir da tabela publicada neste artigo.</desc>
<rect width="100%" height="100%" rx="20" fill="#0f172a"/>
<text x="28" y="42" fill="#f8fafc" font-family="system-ui,sans-serif" font-size="23" font-weight="700">Variação em 24h</text>
<text x="28" y="70" fill="#94a3b8" font-family="system-ui,sans-serif" font-size="15">Dados do recorte publicado no artigo</text>
<text x="28" y="117" fill="#e2e8f0" font-family="system-ui,sans-serif" font-size="16">Nabil Bentaleb</text>
<rect x="285" y="95" width="480" height="28" rx="7" fill="#22c55e"/>
<text x="775" y="116" fill="#f8fafc" font-family="system-ui,sans-serif" font-size="15" font-weight="700">+58.3%</text>
<text x="28" y="175" fill="#e2e8f0" font-family="system-ui,sans-serif" font-size="16">Timothy Weah</text>
<rect x="285" y="153" width="431" height="28" rx="7" fill="#22c55e"/>
<text x="726" y="174" fill="#f8fafc" font-family="system-ui,sans-serif" font-size="15" font-weight="700">+52.3%</text>
<text x="28" y="233" fill="#e2e8f0" font-family="system-ui,sans-serif" font-size="16">Pierre-Emile Højbjerg</text>
<rect x="285" y="211" width="394" height="28" rx="7" fill="#22c55e"/>
<text x="689" y="232" fill="#f8fafc" font-family="system-ui,sans-serif" font-size="15" font-weight="700">+47.9%</text>
<text x="28" y="291" fill="#e2e8f0" font-family="system-ui,sans-serif" font-size="16">Alexsandro</text>
<rect x="285" y="269" width="312" height="28" rx="7" fill="#22c55e"/>
<text x="607" y="290" fill="#f8fafc" font-family="system-ui,sans-serif" font-size="15" font-weight="700">+37.9%</text>
<text x="28" y="349" fill="#e2e8f0" font-family="system-ui,sans-serif" font-size="16">Nuno Mendes</text>
<rect x="285" y="327" width="235" height="28" rx="7" fill="#22c55e"/>
<text x="530" y="348" fill="#f8fafc" font-family="system-ui,sans-serif" font-size="15" font-weight="700">+28.6%</text>
<text x="28" y="407" fill="#e2e8f0" font-family="system-ui,sans-serif" font-size="16">Tyler Morton</text>
<rect x="285" y="385" width="217" height="28" rx="7" fill="#22c55e"/>
<text x="512" y="406" fill="#f8fafc" font-family="system-ui,sans-serif" font-size="15" font-weight="700">+26.4%</text>
</svg>
